<?xml version="1.0" standalone="no"?>
<!DOCTYPE svg PUBLIC "-//W3C//DTD SVG 20010904//EN"
 "http://www.w3.org/TR/2001/REC-SVG-20010904/DTD/svg10.dtd">
<svg version="1.0" xmlns="http://www.w3.org/2000/svg"
 width="507.000000pt" height="507.000000pt" viewBox="0 0 507.000000 507.000000"
 preserveAspectRatio="xMidYMid meet">
<metadata>
Created by potrace 1.14, written by Peter Selinger 2001-2017
</metadata>
<g transform="translate(0.000000,507.000000) scale(0.100000,-0.100000)"
fill="#000000" stroke="none">
<path d="M2577 4294 c-1 -1 -39 -5 -83 -9 -44 -3 -91 -8 -104 -10 -13 -3 -42
-7 -65 -10 -22 -3 -47 -8 -55 -10 -8 -2 -31 -7 -50 -11 -45 -8 -65 -12 -65
-14 0 -1 -9 -3 -20 -5 -51 -8 -80 -17 -92 -27 -7 -6 -13 -8 -13 -5 0 4 -44
-10 -97 -29 -54 -20 -113 -41 -130 -47 -18 -7 -33 -15 -33 -19 0 -5 -7 -8 -15
-8 -8 0 -15 -5 -15 -12 0 -6 -3 -9 -6 -5 -4 3 -25 -3 -48 -15 -56 -28 -210
-128 -214 -139 -2 -5 -10 -9 -18 -9 -7 0 -19 -9 -26 -20 -7 -11 -18 -20 -24
-20 -6 0 -20 -10 -31 -22 -11 -13 -42 -44 -69 -69 -88 -83 -249 -275 -245
-293 1 -4 -7 -15 -17 -26 -22 -24 -99 -161 -94 -168 2 -3 0 -8 -5 -11 -10 -6
-59 -107 -65 -131 -2 -8 -6 -17 -9 -20 -7 -6 -61 -158 -63 -180 -1 -9 -5 -20
-8 -25 -11 -17 -68 -262 -73 -311 -3 -25 -7 -49 -10 -53 -2 -4 -7 -43 -10 -87
-4 -43 -9 -86 -11 -94 -4 -10 -2 -12 5 -5 5 6 11 21 13 35 2 14 7 31 11 38 5
6 6 12 3 12 -3 0 2 23 10 52 9 28 17 59 19 67 5 25 72 212 91 256 10 22 18 42
19 45 0 3 6 15 13 26 6 12 8 24 5 28 -3 3 -1 6 5 6 7 0 12 9 12 20 0 11 5 20
10 20 6 0 10 6 10 13 0 7 20 47 44 89 24 43 41 80 38 83 -3 3 -1 5 5 5 9 0 78
101 73 108 -1 2 5 9 13 15 7 7 33 37 57 67 24 30 50 61 59 68 8 6 12 12 8 12
-4 0 32 38 79 85 48 47 90 85 95 85 4 0 14 8 21 18 7 9 30 28 50 42 20 13 34
29 31 34 -3 5 -1 6 5 2 6 -3 16 0 24 7 7 7 34 26 61 41 26 15 47 32 47 37 0 5
3 8 8 8 21 -4 32 2 26 14 -4 6 -4 9 1 5 8 -8 84 29 97 47 4 6 8 7 8 3 0 -4 34
9 76 28 41 19 82 34 90 34 7 0 14 5 14 12 0 6 3 9 6 5 3 -3 24 1 47 9 41 14
177 51 227 61 42 8 55 11 55 13 0 1 14 3 30 5 17 1 62 7 100 11 76 9 364 10
405 1 14 -3 48 -9 75 -12 28 -4 59 -9 70 -10 11 -2 38 -8 60 -14 22 -6 51 -12
65 -15 14 -2 25 -5 25 -6 0 -1 11 -3 25 -6 23 -4 41 -9 95 -30 26 -9 47 -15
63 -16 6 -1 12 -5 12 -10 0 -4 7 -8 15 -8 9 0 33 -9 54 -20 21 -10 41 -16 45
-13 3 4 6 1 6 -5 0 -7 9 -12 20 -12 11 0 20 -4 20 -10 0 -5 9 -10 20 -10 11 0
20 -4 20 -8 0 -9 71 -47 83 -44 4 1 7 -3 7 -8 0 -6 7 -10 15 -10 8 0 19 -9 25
-20 6 -11 19 -20 30 -20 10 0 26 -10 34 -22 9 -12 16 -18 16 -13 0 6 5 2 11
-7 5 -10 15 -18 21 -18 11 0 47 -31 138 -123 57 -57 110 -117 104 -117 -5 0
24 -35 54 -66 12 -13 22 -28 22 -34 0 -5 8 -18 18 -28 21 -23 39 -50 52 -79 5
-13 14 -23 20 -23 6 0 9 -4 6 -8 -3 -5 6 -25 20 -45 14 -20 22 -37 18 -37 -4
0 0 -8 8 -17 13 -15 26 -40 33 -63 1 -3 13 -31 28 -64 15 -32 27 -62 27 -67 0
-5 4 -9 10 -9 5 0 7 -6 4 -14 -3 -7 2 -20 10 -29 8 -8 13 -16 11 -19 -2 -2 3
-24 12 -48 29 -85 63 -205 63 -227 0 -13 5 -23 11 -23 5 0 8 -4 5 -8 -3 -5 1
-37 8 -73 8 -35 17 -84 20 -109 3 -25 8 -56 11 -70 3 -14 6 -42 6 -62 1 -21 4
-36 8 -33 8 5 6 326 -3 435 -5 64 -15 130 -42 275 -2 17 -10 48 -16 70 -7 22
-12 42 -13 45 -12 53 -50 160 -57 160 -5 0 -7 4 -4 8 3 5 -1 21 -9 35 -8 15
-14 29 -14 30 0 1 -5 16 -11 32 -6 17 -11 32 -10 33 1 2 -7 10 -17 19 -10 8
-12 12 -5 8 14 -7 -23 60 -52 94 -12 13 -15 21 -8 17 11 -7 11 -4 0 13 -7 12
-16 21 -20 21 -5 0 -8 5 -8 11 0 7 -8 18 -17 26 -12 10 -13 12 -3 8 8 -4 5 2
-7 13 -12 11 -19 22 -16 26 4 3 1 6 -5 6 -7 0 -12 6 -12 13 0 7 -14 25 -31 40
-17 15 -28 27 -24 27 5 0 -4 11 -19 25 -14 13 -26 28 -26 34 0 5 -5 13 -12 17
-7 5 -8 2 -3 -7 4 -8 -1 -5 -12 6 -11 11 -19 23 -16 28 2 4 -1 7 -7 7 -6 0
-39 28 -73 63 -33 34 -57 55 -53 47 4 -8 -7 1 -25 20 -17 19 -28 28 -25 20 7
-13 6 -13 -6 0 -7 8 -25 21 -40 29 -16 8 -26 16 -23 19 2 3 -12 14 -33 25 -20
11 -40 25 -44 31 -4 6 -8 7 -8 2 0 -5 -12 1 -27 15 -14 13 -23 18 -19 11 4 -7
-9 -1 -30 13 -20 14 -43 25 -50 25 -8 0 -14 5 -14 11 0 5 -4 7 -10 4 -5 -3
-10 -1 -10 4 0 6 -3 10 -7 9 -5 -1 -26 6 -48 16 -66 30 -178 72 -215 82 -8 2
-33 8 -55 14 -22 6 -49 13 -60 15 -11 2 -49 10 -85 19 -36 8 -85 17 -110 21
-25 3 -63 8 -85 12 -41 6 -243 12 -248 7z"/>
<path d="M3860 3576 c0 -2 8 -10 18 -17 15 -13 16 -12 3 4 -13 16 -21 21 -21
13z"/>
<path d="M2900 3180 c-6 -11 -8 -20 -4 -20 4 0 -3 -9 -16 -20 -13 -11 -19 -20
-14 -20 5 0 0 -7 -10 -15 -11 -8 -16 -15 -10 -15 5 0 5 -4 -1 -8 -14 -10 -62
-85 -61 -95 1 -5 -7 -13 -16 -18 -10 -6 -18 -16 -18 -23 0 -8 -7 -19 -15 -26
-8 -7 -12 -16 -9 -21 3 -5 2 -9 -3 -9 -6 0 -40 -51 -46 -70 -1 -2 -12 -15 -24
-29 -13 -13 -23 -29 -23 -35 -1 -31 -70 -77 -70 -46 0 6 -6 10 -14 10 -8 0
-17 7 -20 16 -4 9 -9 14 -13 11 -3 -4 -12 1 -20 11 -9 10 -11 11 -7 2 7 -13 5
-13 -8 -2 -15 12 -21 8 -27 -20 -1 -4 -11 -18 -24 -31 -12 -13 -29 -33 -37
-46 -8 -13 -25 -35 -37 -49 -13 -15 -23 -32 -23 -38 0 -7 -7 -15 -16 -18 -9
-4 -14 -9 -11 -12 3 -3 -6 -17 -20 -30 -14 -13 -21 -24 -15 -24 6 0 16 8 21
18 6 9 11 13 11 8 0 -5 8 1 19 12 10 12 21 19 25 15 3 -3 6 -1 6 5 0 6 12 18
28 26 15 8 42 29 60 46 17 17 32 27 32 23 0 -4 7 1 15 12 15 19 16 19 33 -5 9
-14 16 -28 14 -32 -1 -5 1 -8 6 -8 4 0 13 -15 21 -32 8 -18 19 -36 25 -40 6
-4 11 -11 12 -15 2 -18 17 -43 26 -43 5 0 7 4 4 9 -4 5 -2 11 3 13 5 1 11 10
13 18 2 8 5 17 9 20 9 8 66 114 68 125 0 6 8 18 16 28 8 9 15 23 15 30 0 7 4
17 9 23 16 15 81 144 73 144 -4 0 -2 4 5 8 6 4 13 14 15 22 2 8 11 23 20 34
10 10 15 23 12 28 -3 4 -1 8 4 8 4 0 14 16 22 35 8 19 16 35 20 35 6 0 40 -38
40 -45 0 -3 36 -59 80 -126 44 -67 87 -133 94 -148 8 -14 24 -36 36 -48 11
-13 18 -23 14 -23 -3 0 -1 -7 7 -16 11 -14 13 -14 21 0 5 9 8 19 8 22 -1 4 2
10 7 13 8 5 23 32 70 124 18 35 28 34 43 -3 7 -16 17 -30 23 -30 6 0 8 -3 5
-6 -5 -4 182 -384 197 -402 2 -2 21 22 43 52 47 66 31 77 162 -117 l93 -138
43 78 c24 43 46 83 51 90 8 11 91 -44 271 -177 28 -22 52 -36 52 -32 0 4 -24
32 -53 62 -28 31 -95 103 -147 160 -52 57 -108 117 -123 133 l-29 30 -49 -49
-50 -49 -41 45 c-73 81 -212 233 -243 265 -16 18 -53 57 -81 88 -29 31 -55 53
-58 50 -3 -4 -6 0 -6 8 0 8 -26 41 -57 74 -31 33 -53 53 -48 45 7 -12 6 -13
-6 -3 -13 11 -18 9 -29 -12 -7 -14 -17 -25 -22 -25 -5 0 -6 -4 -3 -10 3 -5 -1
-10 -10 -10 -9 0 -14 -4 -11 -8 2 -4 -3 -13 -13 -19 -16 -10 -24 -5 -59 35
-22 26 -57 65 -76 87 -20 22 -36 43 -36 48 0 4 -6 7 -14 7 -8 0 -18 5 -22 12
-5 7 -2 8 7 3 8 -4 -1 7 -20 26 -19 19 -40 44 -49 57 -18 27 -28 28 -42 2z"/>
<path d="M1372 2952 c-44 -86 -100 -194 -124 -239 l-42 -83 -42 41 -42 41
-176 -263 c-120 -180 -172 -265 -162 -267 22 -5 132 42 187 80 47 32 50 37 89
148 22 63 46 128 53 143 l12 28 55 -85 c30 -47 58 -82 61 -78 4 4 21 40 39 81
17 40 47 106 66 147 19 41 34 76 34 78 0 4 44 103 88 200 l19 40 44 -80 c155
-279 182 -325 190 -312 4 7 5 16 3 20 -3 4 -1 8 4 8 9 0 25 40 26 65 1 6 3 12
6 15 3 3 13 23 23 45 l19 39 65 -129 c36 -72 69 -132 72 -135 3 -3 8 -14 9
-25 2 -11 8 -21 13 -23 5 -2 9 -13 9 -23 0 -11 5 -17 10 -14 6 3 10 -3 10 -14
0 -11 4 -23 10 -26 5 -3 13 -20 18 -37 l8 -31 24 56 c14 32 27 57 30 57 3 0
21 -25 39 -55 18 -30 38 -55 43 -55 5 0 6 -4 3 -10 -3 -5 -1 -10 4 -10 6 0 11
-7 11 -15 0 -9 7 -18 15 -21 8 -4 13 -10 10 -14 -3 -4 2 -13 10 -20 8 -7 25
-30 37 -51 21 -38 22 -39 40 -19 10 10 18 23 18 29 0 5 7 11 15 15 8 3 15 12
15 20 0 35 31 26 101 -29 14 -11 36 -27 49 -35 12 -8 33 -23 45 -32 13 -10 28
-18 34 -18 6 0 11 -4 11 -10 0 -5 10 -14 23 -20 20 -10 20 -10 5 3 -10 8 -18
19 -18 25 0 6 -8 17 -18 24 -9 7 -37 38 -62 68 -25 30 -56 66 -70 79 -14 13
-18 20 -10 15 13 -7 -15 27 -76 92 -12 13 -19 25 -16 28 3 3 1 6 -5 6 -6 0
-26 -14 -44 -30 -56 -51 -68 -54 -78 -26 -6 13 -18 30 -29 37 -11 8 -19 18
-19 23 -1 4 -16 24 -34 44 -19 20 -28 32 -21 28 7 -4 -6 19 -30 52 -24 33 -46
57 -51 55 -4 -2 -6 0 -5 5 2 7 -195 292 -233 335 -3 5 -24 -19 -44 -52 -21
-34 -41 -61 -45 -61 -4 0 -61 65 -127 144 l-120 145 -81 -157z"/>
<path d="M1477 2164 c-1 -1 -29 -6 -62 -9 -33 -4 -70 -11 -81 -16 -12 -4 -24
-5 -27 -2 -3 3 -12 1 -19 -3 -7 -4 -19 -9 -28 -10 -44 -7 -170 -46 -176 -55
-2 -4 -11 -6 -19 -2 -8 3 -15 0 -15 -7 0 -6 -4 -8 -10 -5 -5 3 -10 1 -10 -5 0
-6 -4 -9 -8 -6 -5 3 -19 -1 -33 -8 -13 -7 -28 -14 -34 -15 -5 -2 -17 -6 -25
-8 -20 -7 -144 -67 -150 -73 -3 -3 -12 -6 -20 -8 -8 -2 -17 -8 -18 -13 -2 -5
-8 -7 -13 -3 -5 3 -9 0 -9 -6 0 -6 -4 -8 -10 -5 -6 3 -10 1 -10 -4 0 -6 -7
-11 -15 -11 -8 0 -15 -5 -15 -10 0 -6 14 -4 35 4 20 9 38 15 40 15 3 0 18 2
33 5 15 4 38 9 52 12 39 8 55 12 55 14 0 1 9 3 20 4 36 5 100 16 125 21 158
32 477 48 620 31 107 -13 225 -32 225 -36 0 -1 11 -3 25 -4 14 -2 35 -6 47
-10 22 -7 52 -14 88 -21 37 -7 65 -14 73 -19 5 -3 20 -7 35 -10 15 -4 39 -8
54 -11 14 -3 34 -10 45 -16 10 -5 18 -8 18 -5 0 2 29 -6 65 -19 36 -13 65 -21
65 -18 0 3 7 0 15 -7 8 -7 15 -9 15 -5 0 4 7 2 15 -5 8 -7 15 -10 15 -8 0 3
48 -12 108 -34 59 -21 114 -41 122 -43 8 -2 15 -4 15 -5 0 -1 7 -3 15 -5 8 -2
42 -10 75 -19 33 -8 80 -18 105 -21 25 -3 52 -8 60 -10 8 -2 40 -7 70 -11 222
-25 426 -25 575 1 11 1 38 6 60 9 22 4 47 9 55 12 8 3 27 7 42 9 70 10 299 90
306 107 2 5 8 6 13 2 5 -3 9 0 9 5 0 6 4 10 8 9 12 -4 121 54 147 78 13 12 25
20 27 18 2 -2 28 19 58 46 l55 50 -75 -29 c-92 -36 -114 -44 -120 -46 -3 0
-32 -9 -65 -19 -70 -21 -225 -56 -275 -61 -19 -3 -46 -7 -60 -10 -35 -7 -195
-18 -260 -17 -174 2 -371 12 -413 21 -26 6 -62 13 -80 15 -17 3 -39 7 -47 10
-8 3 -26 7 -40 10 -38 6 -171 43 -205 56 -16 6 -31 11 -33 11 -5 -2 -57 12
-67 18 -11 6 -32 12 -52 13 -7 1 -13 5 -13 9 0 3 -14 9 -30 12 -44 9 -54 12
-67 20 -7 5 -13 6 -13 2 0 -3 -8 -1 -18 4 -11 6 -30 12 -43 15 -13 3 -39 9
-56 15 -18 5 -33 7 -33 4 0 -3 -6 -1 -12 4 -7 6 -20 11 -28 11 -16 1 -55 9
-55 12 0 1 -11 4 -25 7 -39 7 -55 11 -55 13 0 1 -13 3 -30 6 -33 4 -70 12 -70
14 0 3 -38 10 -75 14 -19 2 -35 5 -35 6 0 2 -119 18 -195 26 -50 5 -250 11
-253 8z"/>
<path d="M4473 2155 c0 -8 4 -12 9 -9 5 3 6 10 3 15 -9 13 -12 11 -12 -6z"/>
<path d="M1167 1863 c-3 -2 -109 -14 -144 -16 -13 0 -23 -3 -23 -6 0 -4 -10
-7 -23 -8 -23 -2 -60 -10 -64 -13 -2 -2 -7 -3 -12 -4 -5 0 -12 -4 -16 -8 -4
-4 -13 -4 -21 -1 -8 3 -14 0 -14 -6 0 -6 -3 -10 -7 -10 -5 1 -10 1 -13 -1 -3
-1 -16 -3 -29 -6 -14 -2 -30 -9 -36 -14 -7 -5 -15 -7 -18 -3 -4 3 -7 0 -7 -7
0 -7 -3 -10 -6 -7 -4 4 -19 0 -33 -7 -43 -23 -141 -66 -150 -66 -5 0 -14 -7
-21 -15 -7 -8 -16 -12 -21 -9 -5 2 -20 -3 -35 -13 -15 -9 -32 -18 -38 -20 -17
-3 -140 -55 -146 -61 -3 -3 3 -2 13 1 10 4 46 11 80 17 66 11 102 17 157 26
38 6 91 13 160 19 25 3 77 8 115 12 135 13 600 8 600 -7 0 -3 60 -12 78 -11 9
0 17 -4 17 -8 0 -4 10 -7 23 -8 12 -1 33 -4 47 -7 39 -10 84 -18 98 -19 6 0
12 -4 12 -8 0 -4 8 -6 18 -4 9 1 22 0 27 -4 6 -3 16 -7 23 -8 6 -2 18 -5 25
-6 6 -2 29 -7 50 -12 20 -4 40 -11 43 -16 3 -5 9 -7 14 -4 5 3 18 1 28 -4 11
-6 30 -12 43 -15 13 -2 53 -14 89 -26 72 -24 99 -31 118 -32 6 -1 12 -5 12
-10 0 -4 9 -8 19 -8 11 0 40 -9 65 -20 26 -11 48 -20 51 -20 3 0 6 0 8 -1 1 0
9 -2 17 -4 19 -5 208 -73 235 -85 23 -10 91 -31 108 -34 7 -1 17 -5 23 -8 19
-12 267 -58 344 -63 25 -2 74 -6 110 -10 124 -13 347 -13 409 0 34 7 61 10 61
8 0 -3 6 0 13 6 8 6 16 9 19 6 5 -5 214 51 232 63 6 3 17 7 24 8 8 2 30 11 50
20 20 10 39 19 42 19 16 3 56 19 60 24 3 3 29 17 58 30 28 14 52 28 52 33 0 4
3 7 8 7 18 -3 30 2 52 24 14 12 25 20 25 19 0 -2 12 2 27 9 15 6 25 17 21 22
-4 6 0 8 10 4 9 -3 17 -3 19 1 2 4 26 22 53 41 104 72 247 196 237 205 -3 4 2
6 11 6 9 0 17 4 17 9 0 6 -12 6 -30 0 -16 -6 -30 -16 -30 -22 0 -6 -3 -7 -7
-4 -3 4 -12 2 -20 -4 -7 -6 -13 -8 -13 -5 0 4 -10 1 -22 -6 -13 -6 -27 -13
-33 -14 -34 -9 -211 -80 -213 -86 -2 -5 -7 -6 -12 -3 -4 3 -25 -2 -46 -11 -21
-9 -45 -18 -53 -20 -9 -2 -74 -19 -146 -38 -71 -19 -146 -37 -165 -40 -19 -3
-44 -7 -55 -10 -58 -11 -135 -18 -270 -22 -82 -3 -161 -6 -175 -6 -33 -1 -190
11 -221 18 -13 2 -40 6 -59 9 -19 2 -35 4 -35 5 0 1 -11 4 -25 6 -60 11 -261
68 -334 96 -45 16 -85 31 -91 32 -5 1 -16 5 -22 9 -7 5 -13 6 -13 2 0 -3 -13
1 -30 10 -16 8 -32 15 -35 15 -3 1 -10 2 -17 5 -30 9 -154 47 -170 51 -10 2
-27 6 -38 9 -11 3 -29 7 -40 10 -11 3 -29 7 -40 10 -11 3 -29 7 -40 10 -11 3
-30 8 -42 11 -13 3 -32 7 -43 9 -11 2 -31 6 -45 9 -14 3 -36 7 -50 10 -14 3
-36 8 -50 11 -14 3 -41 8 -60 10 -19 3 -51 8 -70 11 -19 3 -48 7 -65 9 -16 1
-50 6 -75 9 -139 20 -482 40 -493 29z"/>
</g>
</svg>
